<svg width="237" height="264" viewBox="0 0 237 264" fill="none" xmlns="http://www.w3.org/2000/svg">
<circle cx="124.548" cy="129.516" r="111.774" fill="#376FFF"/>
<circle cx="41.5161" cy="222.484" r="41.5161" fill="#FFC600"/>
<circle cx="217.516" cy="18.8065" r="18.8065" fill="#00E075"/>
<path d="M89.8051 100.774C100.999 100.774 110.741 107.02 115.734 116.201H175.445L189.484 128.823L169.829 144.25L161.405 135.836L152.982 144.25L144.558 135.836L136.135 144.25H115.734C110.741 153.431 100.999 159.677 89.8051 159.677C73.5225 159.677 60.3226 146.491 60.3226 130.226C60.3226 113.96 73.5225 100.774 89.8051 100.774ZM79.9776 121.811C75.3254 121.811 71.554 125.578 71.554 130.226C71.554 134.873 75.3254 138.641 79.9776 138.641C84.6298 138.641 88.4012 134.873 88.4012 130.226C88.4012 125.578 84.6298 121.811 79.9776 121.811Z" fill="#F3F5F8"/>
</svg>
